# xmcd
#
# Track frame offsets: 
#        150
#        23387
#        49817
#        67310
#        86940
#        102720
#        127397
#        151142
#        174205
#        187360
#
# Disc length: 2725 seconds
#
# Revision: 0
# Processed by: cddbd v1.5.2PL0 Copyright (c) Steve Scherf et al.
# Submitted via: ExactAudioCopy v1.3
#
DISCID=920aa30a
DTITLE=美雪 - フォトランダム
DYEAR=1986
DGENRE=JPop
TTITLE0=雨あがり
TTITLE1=想い出のフォト
TTITLE2=Predire d'amour(愛の言葉)
TTITLE3=ラバーズ・レーン
TTITLE4=愛のせい
TTITLE5=雪
TTITLE6=CHRISTMAS
TTITLE7=散歩道
TTITLE8=タッチ・ミー
TTITLE9=煙草売りのラプソディ
EXTD=
EXTT0=
EXTT1=
EXTT2=
EXTT3=
EXTT4=
EXTT5=
EXTT6=
EXTT7=
EXTT8=
EXTT9=
PLAYORDER=
